<svg id="Capa_1" enable-background="new 0 0 512 512" height="512" viewBox="0 0 512 512" width="512" xmlns="http://www.w3.org/2000/svg"><g><g><path d="m223.799 127.194-31.658-126.633c-2.436.685-4.699 1.983-6.548 3.832l-90.6 90.599-64.403 225.411 20.953 83.813 9.066 36.263c.672 2.687 2.057 5.079 3.945 6.968l94.842-94.842z" fill="#e7f1f9"/><g><g><path d="m384.806 288.201-225.41 64.403-94.842 94.842c1.889 1.889 4.281 3.274 6.968 3.945l120.075 30.019 225.41-64.403 90.599-90.599c1.849-1.849 3.148-4.113 3.832-6.548z" fill="#8cbcff"/><path d="m511.552 312.164-30.142-120.567-161.007-161.008-120.567-30.142c-2.575-.644-5.224-.582-7.696.113l31.658 126.633 161.008 161.008 126.633 31.658c.695-2.472.757-5.121.113-7.695z" fill="#ff3c7d"/><g><path d="m511.552 312.164-30.142-120.567-80.504-80.504-96.604 96.604 80.504 80.504 126.633 31.658c.695-2.472.757-5.121.113-7.695z" fill="#b7457d"/></g><path d="m159.396 352.604-32.202-128.806 96.605-96.604 32.201 128.806z" fill="#fff5f5"/><g><path d="m94.993 94.992-90.599 90.6c-3.726 3.726-5.223 9.133-3.945 14.244l30.141 120.567 96.604-96.604z" fill="#fff5f5"/></g><path d="m159.396 352.604 128.806 32.202 96.604-96.605-128.806-32.201z" fill="#9ee2f8"/><g><path d="m191.597 481.41 120.567 30.142c5.112 1.278 10.519-.22 14.244-3.945l90.599-90.599-128.806-32.202z" fill="#9ee2f8"/></g><path d="m384.806 288.201-128.806-32.201-32.201-128.806 128.806 32.201z" fill="#ff80aa"/></g><g><path d="m481.411 191.597-30.019-120.075c-1.344-5.374-5.54-9.57-10.914-10.914l-120.075-30.019 32.201 128.806z" fill="#ff80aa"/></g></g></g><g><path d="m256 256 128.806 32.201-32.201-128.806z" fill="#ff3c7d"/><path d="m451.392 71.522c-.672-2.687-2.057-5.08-3.945-6.968l-94.842 94.842 128.806 32.201z" fill="#ff3c7d"/><g fill="#ff80aa"><rect height="0" width="0" x="352.605" y="159.395"/><rect height="0" width="0" x="352.605" y="159.395"/></g></g></g></svg>